<svg xmlns="http://www.w3.org/2000/svg" width="46.092" height="44.192" viewBox="0 0 46.092 44.192">
  <g id="그룹_3" data-name="그룹 3" transform="translate(-14.076 -23.673)">
    <path id="패스_1" data-name="패스 1" d="M39.1,63a1.678,1.678,0,0,0,.53-1.83,8.9,8.9,0,0,0-1.45-3.12c-.18-.26-.13-.4.05-.64a14.929,14.929,0,0,0,.94-1.53c.13-.24.13-.51-.17-.64-.32-.14-.48.06-.61.34a7.344,7.344,0,0,1-.53,1,1.527,1.527,0,0,1-2.24.49,4.139,4.139,0,0,1-.55-.38c-.53-.43-.75-.37-.95.27a5.124,5.124,0,0,1-.25.65,1.339,1.339,0,0,1-1.06.76c-.71.05-1.15-.48-1.71-.74a.588.588,0,0,0-.54.06.545.545,0,0,0,.02.54,3.087,3.087,0,0,0,2.59.96.533.533,0,0,1,.61.27c.59.77,1.18,1.54,1.82,2.26a5,5,0,0,0,1.95,1.44,1.58,1.58,0,0,0,1.53-.15ZM28.55,47.99c1.5,2.19,2.99,2.35,4.45.8.55-.59.91-2.66.71-2.39a22.422,22.422,0,0,1-1.56,2.04,1.505,1.505,0,0,1-1.36.49,1.858,1.858,0,0,1-1.2-.92,9.682,9.682,0,0,1-1.31-3c-.08-.27-.21-.49-.53-.4s-.35.33-.27.61a11.3,11.3,0,0,0,1.08,2.77Zm-3.36,9.18a1.266,1.266,0,0,0,2.28.48,1.224,1.224,0,0,0,.17-1.08,1.263,1.263,0,0,0-2.45.6Zm18.04-5.56a1.263,1.263,0,0,0-2.06.04,1.259,1.259,0,0,0,1.79,1.72,1.273,1.273,0,0,0,.28-1.76Z" fill="#ffe795" stroke="#000" stroke-miterlimit="10" stroke-width="0.37"/>
    <path id="패스_2" data-name="패스 2" d="M59.08,42.83a17.133,17.133,0,0,1-4.11,4.7c-1.02.86-3.51,2.81-3.49,2.96s.28.32.47.39a11.389,11.389,0,0,1,3.63,1.91,2.081,2.081,0,0,1,.55,2.43,8.538,8.538,0,0,1-2.32,2.88,30.819,30.819,0,0,1-7.4,4.51,67.966,67.966,0,0,1-11.76,4.26c-.71.18-1.43.31-2.15.43a21.842,21.842,0,0,1-7.26-.3,13.3,13.3,0,0,1-7.44-4.17,13.963,13.963,0,0,1-3.32-8.64,24.452,24.452,0,0,1,3.23-13.11A39.874,39.874,0,0,1,30.79,26.67a14.769,14.769,0,0,1,5.66-2.53,6.96,6.96,0,0,1,1.88-.06,3.284,3.284,0,0,1,2.55,2.1,19.027,19.027,0,0,1,1.81,6.03c.18,1.17.28,2.35.4,3.52a.674.674,0,0,0,.8.6,36.532,36.532,0,0,1,8.92-.57,13.2,13.2,0,0,1,4.11.88c2.78,1.17,3.62,3.55,2.17,6.19Z" fill="#ffe795" stroke="#000" stroke-miterlimit="10" stroke-width="0.74"/>
    <path id="패스_3" data-name="패스 3" d="M38.58,62.47a1.582,1.582,0,0,1-1.53.15,5.071,5.071,0,0,1-1.95-1.44c-.64-.73-1.23-1.5-1.82-2.26a.545.545,0,0,0-.61-.27,3.087,3.087,0,0,1-2.59-.96.547.547,0,0,1-.02-.54.592.592,0,0,1,.54-.06c.57.26,1.01.79,1.71.74a1.333,1.333,0,0,0,1.06-.76,5.124,5.124,0,0,0,.25-.65c.19-.64.42-.7.95-.27a4.139,4.139,0,0,0,.55.38,1.521,1.521,0,0,0,2.24-.49,7.344,7.344,0,0,0,.53-1c.13-.27.29-.47.61-.34.3.13.3.4.17.64a14.929,14.929,0,0,1-.94,1.53c-.18.24-.22.38-.05.64a9.178,9.178,0,0,1,1.45,3.12,1.7,1.7,0,0,1-.53,1.83Z"/>
    <path id="패스_4" data-name="패스 4" d="M28.55,47.99a11.141,11.141,0,0,1-1.08-2.77c-.08-.28-.04-.52.27-.61s.46.13.53.4a9.923,9.923,0,0,0,1.31,3,1.883,1.883,0,0,0,1.2.92,1.5,1.5,0,0,0,1.36-.49A23.9,23.9,0,0,0,33.7,46.4c.19-.27.31-.7.75-.45s.16.6-.02.87A16.506,16.506,0,0,1,33,48.79c-1.46,1.54-2.95,1.39-4.45-.8Z"/>
    <path id="패스_5" data-name="패스 5" d="M25.84,58.05a1.27,1.27,0,0,1,.26-2.34,1.263,1.263,0,1,1,.5,2.47A1.18,1.18,0,0,1,25.84,58.05Z"/>
    <path id="패스_6" data-name="패스 6" d="M42.8,51.23a1.261,1.261,0,1,1-1.03-.07A1.24,1.24,0,0,1,42.8,51.23Z"/>
    <path id="패스_7" data-name="패스 7" d="M33.73,58.41s.72-.68.68-1.28c0,0,1.55.82,2.36.41,0,0,2.54,2.93,1.3,4.45-.73.72-4.06-3.14-4.34-3.57Z" fill="#d24f65"/>
  </g>
</svg>
