<svg xmlns="http://www.w3.org/2000/svg" width="13.78" height="13.162" viewBox="0 0 13.78 13.162">
  <g id="그룹_28" data-name="그룹 28" transform="translate(-1545.346 -874.796)">
    <path id="패스_189" data-name="패스 189" d="M307.626,290.458l-3.285-1.047a6,6,0,0,1-3.4,1.047,6.081,6.081,0,1,1,0-12.162,6.33,6.33,0,0,1,3.443,1.063,5.925,5.925,0,0,1,2.65,5.006,6.074,6.074,0,0,1-.571,2.57Z" transform="translate(1251 597)" fill="none" stroke="#3c7fdf" stroke-linecap="round" stroke-linejoin="round" stroke-width="1"/>
    <path id="패스_190" data-name="패스 190" d="M298.987,284.5a.893.893,0,1,1-.893-.893.893.893,0,0,1,.893.893" transform="translate(1251 597)" fill="#3c7fdf"/>
    <path id="패스_191" data-name="패스 191" d="M301.974,284.5a.893.893,0,1,1-.893-.893.893.893,0,0,1,.893.893" transform="translate(1251 597)" fill="#3c7fdf"/>
    <path id="패스_192" data-name="패스 192" d="M304.961,284.5a.893.893,0,1,1-.893-.893.893.893,0,0,1,.893.893" transform="translate(1251 597)" fill="#3c7fdf"/>
  </g>
</svg>
